<svg id="Layer_1" height="512" viewBox="0 0 75 75" width="512" xmlns="http://www.w3.org/2000/svg" data-name="Layer 1"><g fill="#556065"><path d="m21.7 44.958a.744.744 0 0 1 -.474-.169l-8.2-6.708a.751.751 0 0 1 0-1.162l8.2-6.708a.75.75 0 1 1 .949 1.161l-7.49 6.128 7.491 6.128a.75.75 0 0 1 -.475 1.33z"/><path d="m53.3 44.958a.75.75 0 0 1 -.475-1.33l7.49-6.128-7.491-6.128a.75.75 0 0 1 .949-1.161l8.2 6.708a.751.751 0 0 1 0 1.162l-8.2 6.708a.744.744 0 0 1 -.473.169z"/><circle cx="29.083" cy="37.5" r="2.125"/><circle cx="37.5" cy="37.5" r="2.125"/><circle cx="45.917" cy="37.5" r="2.125"/></g></svg>