<svg id="Capa_1" enable-background="new 0 0 512 512" height="512" viewBox="0 0 512 512" width="512" xmlns="http://www.w3.org/2000/svg"><g><path d="m392 89.829v-28.829c0-5.523-4.478-10-10-10h-141c-5.522 0-10 4.477-10 10s4.478 10 10 10h131v370h-352v-370h131c5.522 0 10-4.477 10-10s-4.478-10-10-10h-141c-5.522 0-10 4.477-10 10v390c0 5.523 4.478 10 10 10h372c5.522 0 10-4.477 10-10v-28.829c68.829-22.84 120-87.73 120-166.171 0-78.384-51.115-143.313-120-166.171zm0 311.127v-289.912c59.495 22.6 100 80.405 100 144.956s-40.505 122.357-100 144.956z"/><path d="m126 181v145.381c-5.888-3.415-12.717-5.381-20-5.381-22.056 0-40 17.944-40 40s17.944 40 40 40 40-17.944 40-40v-113.23l130-52v70.611c-5.888-3.415-12.717-5.381-20-5.381-22.056 0-40 17.944-40 40s17.944 40 40 40 40-17.944 40-40c0-10.344 0-169.031 0-180 0-3.318-1.646-6.42-4.394-8.281-2.748-1.86-6.238-2.238-9.32-1.004l-150 60c-3.797 1.519-6.286 5.196-6.286 9.285zm-20 200c-11.028 0-20-8.972-20-20s8.972-20 20-20 20 8.972 20 20-8.972 20-20 20zm150-60c-11.028 0-20-8.972-20-20s8.972-20 20-20 20 8.972 20 20-8.972 20-20 20zm20-185.229v38.459l-130 52v-38.459z"/><circle cx="196" cy="61.001" r="10"/></g></svg>